<?xml version="1.0" standalone="no"?>
<!DOCTYPE svg PUBLIC "-//W3C//DTD SVG 20010904//EN"
 "http://www.w3.org/TR/2001/REC-SVG-20010904/DTD/svg10.dtd">
<svg version="1.0" xmlns="http://www.w3.org/2000/svg"
 width="240.000000pt" height="240.000000pt" viewBox="0 0 240.000000 240.000000"
 preserveAspectRatio="xMidYMid meet">
<metadata>
Created by potrace 1.14, written by Peter Selinger 2001-2017
</metadata>
<g transform="translate(0.000000,240.000000) scale(0.100000,-0.100000)"
fill="#000000" stroke="none">
<path d="M857 2393 c18 -2 50 -2 70 0 21 2 7 4 -32 4 -38 0 -55 -2 -38 -4z"/>
<path d="M1394 2385 c-25 -79 -35 -275 -14 -275 6 0 10 -7 10 -15 0 -11 19
-15 86 -17 l86 -3 -66 -34 c-53 -27 -66 -38 -66 -57 0 -22 -4 -24 -44 -24 -43
0 -43 0 -50 41 -4 22 -3 45 0 51 4 6 3 8 -4 4 -6 -3 -13 6 -17 23 -7 35 -47
81 -70 81 -51 0 -100 -60 -97 -119 2 -27 -8 -23 -12 6 -1 10 -12 22 -24 28
-12 5 -22 17 -22 25 0 10 -3 11 -8 3 -5 -8 -13 -8 -32 2 -14 7 -24 17 -22 21
2 5 -2 10 -9 13 -7 2 -9 -1 -5 -8 4 -6 2 -11 -3 -11 -6 0 -11 4 -11 8 0 4 -17
9 -37 10 -28 1 -33 -1 -18 -7 19 -8 19 -8 0 -19 -15 -9 -16 -11 -4 -12 8 0 20
5 25 10 7 7 16 -8 27 -50 9 -33 17 -68 16 -77 -1 -21 -37 54 -38 80 -1 12 -9
17 -28 17 -21 0 -24 -3 -15 -12 14 -14 16 -84 3 -92 -5 -3 -24 33 -42 79 -19
47 -35 81 -37 75 -6 -17 -18 -11 -19 10 -2 23 8 20 46 -14 23 -20 23 -20 14
-1 -6 11 -13 38 -15 61 -5 39 -4 41 19 38 22 -2 24 9 2 12 -5 1 -13 2 -19 3
-17 2 -12 58 6 65 31 12 54 6 71 -20 16 -24 16 -27 0 -36 -24 -13 -21 -25 5
-23 14 1 25 10 29 26 4 13 8 17 8 9 1 -10 4 -11 9 -4 4 6 14 14 22 17 9 3 5 6
-10 6 -31 1 -73 29 -64 42 3 5 9 7 14 4 5 -3 11 -1 15 5 3 5 -1 10 -9 10 -8 0
-18 -5 -21 -10 -4 -6 -11 -7 -17 -4 -9 6 -40 6 -151 1 -17 -1 -17 -2 -1 -14
12 -9 21 -10 28 -3 5 5 24 10 40 9 26 0 28 -2 11 -8 -11 -5 -23 -6 -28 -4 -4
2 -7 1 -6 -4 6 -37 -1 -43 -57 -43 -51 0 -55 -2 -43 -16 26 -31 20 -44 -21
-44 -35 0 -39 3 -50 35 -15 46 -49 67 -108 68 -68 1 -75 -6 -67 -64 5 -34 3
-49 -5 -49 -8 0 -11 -21 -9 -64 2 -60 0 -67 -29 -101 -21 -24 -32 -46 -32 -67
0 -50 -13 -23 -17 33 -5 79 -19 99 -92 126 -35 13 -65 22 -66 21 -2 -2 1 -37
5 -78 5 -41 9 -91 9 -110 0 -30 -3 -27 -21 30 -11 36 -21 75 -21 88 -1 12 -6
22 -10 22 -4 0 2 13 14 29 12 16 19 34 15 39 -3 5 1 26 9 45 12 29 19 34 37
31 20 -4 19 -3 -5 11 -16 9 -30 15 -31 13 -1 -2 -9 -23 -17 -48 -14 -41 -19
-45 -48 -45 -29 0 -34 4 -47 40 -7 22 -14 41 -14 43 0 1 10 7 23 12 17 7 18 9
5 9 -23 1 -23 14 0 34 24 22 60 22 86 0 20 -18 20 -18 3 7 -40 59 -40 60 -5
61 37 1 68 6 74 11 2 2 -31 5 -72 5 -71 2 -75 0 -84 -23 -8 -20 -16 -24 -50
-24 l-41 0 3 -52 c3 -45 6 -53 24 -56 14 -2 27 -16 37 -43 l16 -40 -32 -19
c-18 -11 -35 -20 -39 -20 -5 0 -8 21 -8 48 0 83 -10 122 -32 122 -18 0 -18 -1
-4 -16 21 -20 22 -94 1 -94 -12 0 -14 -51 -15 -356 0 -253 3 -361 11 -370 16
-20 60 -19 53 1 -4 8 -1 15 5 15 6 0 11 9 11 20 0 11 4 20 9 20 5 0 13 9 16
20 4 11 11 18 16 15 5 -4 9 5 9 19 0 14 -5 28 -11 31 -6 4 -8 13 -5 21 3 8 2
14 -2 14 -8 0 -28 43 -38 84 -6 26 -5 29 15 23 11 -3 24 -1 27 4 3 5 -5 10
-18 10 -19 1 -20 2 -4 6 13 3 15 7 7 12 -16 10 35 61 60 61 28 0 46 -39 48
-99 1 -47 -2 -59 -26 -84 -25 -26 -26 -29 -7 -23 19 6 21 3 20 -33 0 -22 2
-43 6 -46 11 -12 28 5 28 28 0 16 3 18 12 9 17 -17 16 -116 -1 -136 -12 -14
-11 -16 7 -16 26 0 84 66 78 88 -20 68 -20 75 3 69 17 -4 32 5 64 37 24 23 61
53 84 66 l42 23 -28 36 c-15 20 -28 51 -29 69 -1 27 2 32 21 33 18 0 19 2 5 7
-31 13 -3 36 48 38 41 3 50 -1 74 -26 15 -16 30 -42 34 -57 3 -15 11 -35 18
-43 18 -21 88 -66 132 -84 41 -17 40 -38 -4 -56 -15 -6 -39 -23 -52 -37 -22
-23 -23 -32 -23 -151 0 -75 5 -146 13 -172 7 -25 14 -61 15 -81 1 -20 9 -44
16 -53 12 -14 9 -16 -30 -16 -67 0 -119 11 -119 25 0 8 -17 14 -46 17 -36 2
-48 -1 -55 -14 -7 -14 -14 -15 -35 -8 -19 8 -26 6 -31 -5 -3 -11 -9 -12 -17
-6 -8 7 -16 1 -25 -20 -10 -24 -16 -27 -31 -19 -14 8 -19 5 -23 -11 -3 -12
-10 -18 -16 -14 -17 10 -13 44 8 74 23 32 14 58 -15 43 -34 -17 -216 -22 -253
-6 -45 19 -51 18 -51 -10 0 -14 -5 -28 -10 -31 -6 -4 -10 -203 -10 -565 l0
-560 1200 0 1200 0 0 854 c0 756 -2 858 -16 891 -9 21 -14 49 -11 62 3 15 -1
27 -9 30 -21 8 -4 34 17 28 15 -5 19 -1 19 20 0 14 -5 35 -10 46 -7 13 -7 19
0 19 5 0 10 7 10 16 0 8 -4 13 -9 10 -16 -10 -19 32 -4 60 7 16 13 40 11 54
l-3 25 -31 -33 c-32 -34 -44 -33 -44 4 0 12 -7 30 -16 39 -9 8 -17 28 -18 43
-1 30 -17 52 -38 52 -15 0 -39 66 -31 87 3 8 22 13 49 13 l44 0 0 40 c0 40 0
40 -39 40 -22 0 -44 -6 -51 -15 -16 -19 -30 -19 -30 0 0 12 -9 15 -35 13 -39
-2 -41 5 23 -67 30 -34 28 -40 -13 -36 -19 2 -35 -1 -35 -7 0 -5 -6 -8 -12 -5
-43 15 -59 -39 -39 -125 11 -46 -3 -50 -47 -13 -39 33 -52 32 -52 -5 0 -22 4
-28 15 -24 10 4 15 0 15 -15 0 -14 -6 -21 -20 -21 -13 0 -20 -7 -20 -19 0 -15
-7 -19 -32 -18 -18 0 -50 -3 -71 -7 -25 -5 -37 -4 -33 3 3 5 0 11 -6 14 -23 8
2 21 55 27 41 6 54 4 61 -8 7 -12 10 -12 17 -1 5 8 9 22 9 32 0 14 -9 17 -55
17 -30 0 -55 -4 -55 -10 0 -16 -18 -12 -39 9 -18 18 -101 34 -119 22 -14 -9
-24 -48 -14 -55 16 -10 -21 -316 -39 -316 -5 0 -9 53 -10 118 0 64 -1 127 -1
138 0 13 -6 21 -14 20 -17 -3 -31 -16 -16 -16 7 0 6 -9 -4 -27 -7 -16 -14 -41
-15 -58 -1 -61 -18 8 -18 78 -1 64 0 67 18 57 22 -11 27 -6 25 30 -1 14 -2 40
-3 58 -1 21 -6 32 -16 32 -33 0 -15 38 31 64 29 17 30 20 24 67 -4 27 -9 52
-13 55 -11 11 -239 10 -243 -1z m872 -22 c-10 -10 -19 5 -10 18 6 11 8 11 12
0 2 -7 1 -15 -2 -18z m-2166 -89 c0 -9 -5 -14 -12 -12 -18 6 -21 28 -4 28 9 0
16 -7 16 -16z m414 -9 c-15 -22 -31 -36 -21 -17 2 4 7 15 10 25 4 9 11 17 17
17 6 0 3 -11 -6 -25z m1673 -35 c7 -8 13 -23 13 -33 0 -11 4 -15 12 -11 8 5 9
0 3 -17 -4 -13 -9 -40 -12 -59 -4 -34 -2 -36 53 -65 61 -32 77 -50 45 -52 -14
-1 -18 3 -14 13 3 10 -5 16 -27 20 -17 4 -34 13 -37 20 -7 20 -23 17 -23 -3
-1 -13 -5 -10 -16 10 -8 15 -22 27 -32 27 -14 0 -17 11 -19 57 -1 38 -6 59
-16 65 -16 8 -13 42 6 66 10 13 33 -1 64 -38z m-1573 24 c9 -24 7 -46 -4 -39
-5 3 -10 1 -10 -4 0 -6 7 -11 15 -11 20 0 20 -50 0 -76 -19 -25 -19 -43 1 -65
9 -10 14 -25 10 -34 -9 -23 -85 -17 -100 9 -8 14 -8 20 2 23 6 3 10 8 8 11 -9
16 13 185 26 193 21 14 45 10 52 -7z m241 -54 c3 -5 1 -10 -4 -10 -6 0 -11 5
-11 10 0 6 2 10 4 10 3 0 8 -4 11 -10z m-38 -37 c-3 -10 -5 -4 -5 12 0 17 2
24 5 18 2 -7 2 -21 0 -30z m777 -15 l-8 -33 -6 30 c-3 17 -1 33 4 37 16 11 19
2 10 -34z m-854 -26 c0 -43 -3 -50 -25 -60 -33 -15 -35 -15 -35 3 0 8 5 15 12
15 9 0 9 3 0 12 -7 7 -12 27 -12 45 0 30 3 33 30 33 29 0 30 -1 30 -48z m1370
38 c0 -5 -2 -10 -4 -10 -3 0 -8 5 -11 10 -3 6 -1 10 4 10 6 0 11 -4 11 -10z
m-1943 -32 c9 -13 17 -118 9 -118 -3 0 -12 24 -22 53 -9 28 -19 58 -22 65 -2
6 3 12 11 12 8 0 19 -6 24 -12z m1630 -14 c-3 -3 -12 -4 -19 -1 -8 3 -5 6 6 6
11 1 17 -2 13 -5z m293 -14 c0 -5 -7 -7 -15 -4 -8 4 -15 8 -15 10 0 2 7 4 15
4 8 0 15 -4 15 -10z m-25 -20 c3 -5 -1 -10 -10 -10 -9 0 -13 5 -10 10 3 6 8
10 10 10 2 0 7 -4 10 -10z m-1395 -10 c0 -5 -5 -10 -11 -10 -5 0 -7 5 -4 10 3
6 8 10 11 10 2 0 4 -4 4 -10z m584 1 c3 -5 -1 -11 -9 -15 -15 -6 -29 7 -18 18
9 9 21 8 27 -3z m552 -30 c-4 -6 -13 -11 -19 -10 -9 0 -9 2 1 6 20 8 14 23
-10 23 -19 0 -20 2 -8 10 18 11 46 -12 36 -29z m225 -4 c-6 -8 -8 -17 -4 -21
4 -4 0 -4 -10 0 -22 8 -22 21 1 27 9 3 19 5 21 6 2 0 -2 -5 -8 -12z m-746 -16
c-3 -6 -11 -8 -17 -5 -6 4 -5 9 3 15 16 10 23 4 14 -10z m705 -5 c0 -2 -7 -7
-16 -10 -8 -3 -12 -2 -9 4 6 10 25 14 25 6z m105 -6 c3 -5 19 -7 35 -4 25 5
31 2 45 -26 13 -26 15 -38 6 -57 -6 -13 -14 -46 -17 -73 -5 -42 -3 -50 15 -59
11 -6 24 -11 28 -10 18 3 33 -2 33 -11 0 -5 -7 -6 -17 -3 -11 4 -14 3 -9 -5 4
-6 4 -27 0 -46 -6 -32 -9 -36 -51 -42 -57 -8 -89 6 -98 45 -3 17 -19 40 -33
51 l-27 21 32 -5 c39 -6 56 15 42 51 -9 23 -8 23 21 8 23 -12 30 -13 30 -3 0
7 -10 18 -22 23 -22 10 -56 59 -57 83 -1 6 11 13 27 13 23 2 24 2 5 6 -14 3
-23 12 -23 22 0 28 22 42 35 21z m-210 -48 c-3 -8 -5 -20 -5 -28 0 -10 -12
-14 -37 -14 -36 0 -38 2 -38 30 0 34 20 53 49 44 13 -5 17 -2 12 7 -4 8 0 5 8
-6 9 -11 14 -26 11 -33z m55 18 c7 -13 7 -20 1 -20 -6 0 -15 9 -21 20 -7 13
-7 20 -1 20 6 0 15 -9 21 -20z m-1459 -13 c-6 -8 -9 -17 -6 -20 3 -4 2 -5 -2
-2 -3 3 -12 0 -20 -6 -9 -8 -13 -8 -13 -1 0 6 10 18 22 26 28 20 34 20 19 3z
m1831 -19 c-19 -19 -14 -32 6 -17 15 13 16 12 3 -3 -9 -13 -10 -18 -2 -18 7 0
9 -4 6 -10 -3 -6 1 -7 9 -4 12 5 16 0 16 -20 0 -14 -5 -26 -11 -26 -5 0 -8 -4
-5 -9 11 -17 -6 -41 -29 -41 -23 0 -63 36 -52 47 4 3 7 1 7 -5 0 -7 5 -12 11
-12 5 0 7 5 4 10 -3 6 0 10 8 10 8 0 17 10 21 23 8 30 7 39 -2 33 -5 -3 -9 3
-9 12 -2 27 5 42 19 42 9 0 9 -3 0 -12z m-912 -8 c-20 -13 -40 -13 -40 0 0 6
12 10 28 10 21 0 24 -2 12 -10z m-467 -17 c3 -5 -8 -24 -25 -43 -16 -19 -26
-26 -22 -16 6 15 4 17 -7 11 -8 -5 -5 1 5 13 11 12 16 22 12 22 -4 0 -4 5 -1
10 7 12 32 13 38 3z m600 -31 c10 -10 25 -41 34 -68 10 -29 19 -42 21 -31 7
33 22 17 22 -23 0 -23 -5 -40 -11 -40 -8 0 -10 -14 -6 -43 5 -32 -1 -66 -22
-131 -16 -49 -32 -83 -36 -77 -4 7 -4 23 -1 36 7 28 -2 36 -32 28 -17 -4 -21
-10 -16 -29 3 -13 7 -35 8 -49 1 -18 7 -25 21 -25 17 0 18 -2 5 -11 -11 -8
-12 -12 -3 -16 14 -5 8 -80 -7 -96 -12 -13 -29 46 -40 141 -6 47 -15 93 -20
103 -6 10 -10 27 -10 39 0 19 2 20 15 6 13 -13 20 -13 43 -3 l27 12 -27 3
c-14 2 -41 18 -60 36 -18 17 -41 35 -50 39 -12 4 -18 17 -18 34 l1 28 14 -25
c13 -23 13 -20 8 35 -3 33 -7 62 -9 64 -10 11 92 79 122 81 6 0 18 -8 27 -18z
m346 -7 c35 0 22 -20 -14 -23 -35 -2 -40 3 -29 33 5 13 8 14 15 3 5 -7 17 -13
28 -13z m-839 -20 c19 -38 17 -118 -4 -150 -9 -14 -27 -32 -41 -41 -23 -15
-27 -15 -57 3 -34 20 -88 111 -87 148 0 18 1 18 10 -3 11 -29 24 -22 49 28 20
39 40 49 90 46 17 -1 30 -11 40 -31z m-892 18 c-10 -2 -18 -9 -18 -14 0 -6 -5
-7 -11 -3 -14 8 8 24 31 23 11 -1 10 -3 -2 -6z m1669 -22 c-1 -16 -5 -18 -19
-10 -24 13 -23 29 1 29 13 0 19 -6 18 -19z m163 -21 c0 -5 -2 -10 -4 -10 -3 0
-8 5 -11 10 -3 6 -1 10 4 10 6 0 11 -4 11 -10z m-123 -26 c-3 -3 -12 -4 -19
-1 -8 3 -5 6 6 6 11 1 17 -2 13 -5z m-28 -49 c16 -5 20 -10 13 -17 -6 -6 -8
-25 -5 -42 7 -38 5 -36 -37 39 -22 41 -27 55 -14 44 11 -9 30 -20 43 -24z m64
-49 c4 -58 4 -59 -14 -37 -18 23 -21 74 -4 101 11 17 12 11 18 -64z m-1813
-152 c0 -8 -5 -12 -10 -9 -6 4 -8 11 -5 16 9 14 15 11 15 -7z m17 -36 c-3 -8
-6 -5 -6 6 -1 11 2 17 5 13 3 -3 4 -12 1 -19z m2105 5 c13 -12 18 -31 18 -71
l0 -55 27 27 c36 36 53 19 25 -26 -15 -25 -18 -38 -11 -51 8 -14 3 -29 -23
-70 -38 -59 -97 -124 -84 -92 12 28 14 72 5 87 -4 7 -3 19 4 27 10 11 8 13
-10 7 -30 -10 -63 10 -63 37 1 21 1 21 11 3 9 -15 13 -16 20 -5 13 21 11 29
-7 29 -9 0 -12 5 -8 13 5 8 2 8 -9 -2 -15 -12 -17 -11 -17 12 0 14 7 27 15 31
20 7 19 36 -1 51 -12 8 -15 20 -10 38 6 24 11 27 53 27 29 0 53 -6 65 -17z
m-1112 -34 c0 -24 -23 -21 -28 4 -2 10 3 17 12 17 10 0 16 -9 16 -21z m150
-89 c0 -11 -4 -20 -10 -20 -5 0 -10 9 -10 20 0 11 5 20 10 20 6 0 10 -9 10
-20z m685 -90 c-14 -6 -15 -9 -5 -10 10 -1 9 -4 -5 -9 -19 -8 -45 3 -45 18 0
3 17 7 38 8 28 1 32 -1 17 -7z m-205 -51 c0 -29 -18 -59 -35 -59 -18 0 -19 20
-3 55 14 30 38 33 38 4z m430 2 c0 -6 -5 -13 -11 -17 -7 -4 -9 -21 -5 -44 4
-25 1 -48 -9 -66 -8 -16 -15 -48 -15 -71 0 -23 -4 -45 -10 -48 -6 -4 -10 7
-10 25 0 18 -4 29 -10 25 -5 -3 -10 -3 -10 0 0 19 66 205 72 205 4 0 8 -4 8
-9z m-217 -36 c-3 -9 -8 -14 -10 -11 -3 3 -2 9 2 15 9 16 15 13 8 -4z m-23 -4
c0 -6 -5 -13 -12 -17 -6 -4 -8 -3 -4 4 3 5 0 13 -6 15 -8 3 -6 6 5 6 9 1 17
-3 17 -8z m-514 -30 c-3 -5 1 -11 9 -15 8 -3 17 -1 20 4 4 6 13 10 21 10 15 0
18 -29 8 -67 -7 -26 -21 -28 -47 -9 -16 13 -16 15 -2 30 9 9 13 16 8 16 -5 0
-14 -5 -19 -10 -8 -8 -15 -6 -24 4 -15 19 -6 46 15 46 9 0 14 -4 11 -9z m-217
-90 c11 -7 10 -19 -8 -72 -11 -34 -19 -64 -17 -66 2 -2 15 1 30 7 l27 10 -3
-200 -3 -199 -65 -30 c-36 -17 -77 -35 -93 -40 -23 -9 -26 -15 -21 -36 9 -35
-9 -52 -51 -50 -34 2 -63 15 -34 15 8 0 19 11 25 24 11 23 10 23 -33 18 -25
-3 -49 0 -57 7 -11 10 -15 8 -19 -6 -3 -10 -5 11 -6 47 -1 36 -12 110 -26 165
-14 55 -28 131 -31 169 l-7 69 56 -6 c32 -3 57 -3 57 0 0 3 -18 25 -40 49 -22
24 -40 47 -40 52 0 5 17 16 37 26 31 15 39 16 46 4 66 -112 79 -128 105 -128
21 0 24 -2 12 -10 -13 -8 -13 -10 1 -10 9 0 28 9 42 20 24 19 29 33 53 158 5
23 36 30 63 13z m681 -31 c0 -5 -2 -10 -4 -10 -3 0 -8 5 -11 10 -3 6 -1 10 4
10 6 0 11 -4 11 -10z m-255 -40 c4 -6 -7 -10 -24 -10 -17 0 -31 5 -31 10 0 6
11 10 24 10 14 0 28 -4 31 -10z m478 -20 c3 -11 2 -18 -3 -15 -13 8 -19 -20
-13 -63 4 -33 2 -42 -15 -51 -17 -9 -22 -8 -27 9 -3 11 -11 19 -17 17 -24 -5
-16 21 17 57 19 21 35 45 35 52 0 21 17 17 23 -6z m-810 -128 c-23 -31 -53
-41 -53 -17 0 8 11 20 24 25 13 5 27 14 31 20 4 6 10 9 13 6 3 -4 -4 -19 -15
-34z m633 -27 c4 -8 18 -15 34 -15 15 0 30 -6 33 -14 4 -10 -2 -13 -24 -12
-33 2 -38 -8 -11 -23 15 -9 15 -12 2 -21 -35 -23 -40 -16 -54 68 -6 32 10 45
20 17z m-1579 -251 c-3 -3 -12 -4 -19 -1 -8 3 -5 6 6 6 11 1 17 -2 13 -5z m51
-23 c3 -8 -1 -12 -9 -9 -7 2 -15 10 -17 17 -3 8 1 12 9 9 7 -2 15 -10 17 -17z
m668 -282 c-9 -55 -45 -161 -61 -178 -11 -12 -13 -9 -9 15 3 16 7 52 10 79 4
45 43 125 60 125 4 0 4 -18 0 -41z m114 33 c0 -16 -29 -47 -36 -39 -5 4 -2 12
6 17 8 6 11 10 7 10 -11 0 2 20 14 20 5 0 9 -4 9 -8z m733 -59 c-7 -2 -21 -2
-30 0 -10 3 -4 5 12 5 17 0 24 -2 18 -5z"/>
<path d="M2155 2200 c-3 -5 -1 -10 4 -10 6 0 11 5 11 10 0 6 -2 10 -4 10 -3 0
-8 -4 -11 -10z"/>
<path d="M555 2210 c-3 -5 -1 -10 4 -10 6 0 11 5 11 10 0 6 -2 10 -4 10 -3 0
-8 -4 -11 -10z"/>
<path d="M600 2149 c0 -5 5 -7 10 -4 6 3 10 8 10 11 0 2 -4 4 -10 4 -5 0 -10
-5 -10 -11z"/>
<path d="M2120 1970 c0 -5 4 -10 9 -10 6 0 13 5 16 10 3 6 -1 10 -9 10 -9 0
-16 -4 -16 -10z"/>
<path d="M2127 1916 c-4 -10 -1 -13 9 -9 15 6 19 23 5 23 -5 0 -11 -7 -14 -14z"/>
<path d="M1500 1801 c0 -16 28 -20 34 -5 4 9 -1 14 -14 14 -11 0 -20 -4 -20
-9z"/>
<path d="M1411 1791 c-21 -14 -4 -33 19 -21 13 7 20 6 24 -3 3 -6 5 -3 3 8 -2
22 -25 30 -46 16z"/>
<path d="M925 1810 c-16 -7 -17 -9 -3 -9 9 -1 20 4 23 9 7 11 7 11 -20 0z"/>
<path d="M1008 1803 c7 -3 16 -2 19 1 4 3 -2 6 -13 5 -11 0 -14 -3 -6 -6z"/>
<path d="M2140 1466 c0 -18 13 -27 25 -18 18 13 15 32 -5 32 -11 0 -20 -6 -20
-14z"/>
<path d="M1770 2370 c0 -29 2 -30 46 -30 38 0 45 3 40 16 -3 9 -6 22 -6 30 0
10 -12 14 -40 14 -38 0 -40 -2 -40 -30z"/>
<path d="M421 2349 c-1 -30 -65 -109 -88 -109 -9 0 -13 -3 -10 -6 3 -4 22 1
41 10 29 13 41 27 51 56 1 3 5 13 9 22 4 9 6 25 3 35 -3 13 -5 10 -6 -8z"/>
<path d="M920 2360 c0 -5 7 -10 15 -10 8 0 15 5 15 10 0 6 -7 10 -15 10 -8 0
-15 -4 -15 -10z"/>
<path d="M810 2356 c0 -2 7 -6 15 -10 8 -3 15 -1 15 4 0 6 -7 10 -15 10 -8 0
-15 -2 -15 -4z"/>
<path d="M1010 2310 c-9 -6 -10 -10 -3 -10 6 0 15 5 18 10 8 12 4 12 -15 0z"/>
<path d="M740 2280 c0 -5 5 -10 11 -10 5 0 7 5 4 10 -3 6 -8 10 -11 10 -2 0
-4 -4 -4 -10z"/>
<path d="M1728 2283 c23 -2 59 -2 80 0 20 2 1 4 -43 4 -44 0 -61 -2 -37 -4z"/>
<path d="M1673 2238 c1 -21 5 -38 10 -38 10 0 8 42 -3 60 -7 11 -9 5 -7 -22z"/>
<path d="M1733 2263 c15 -2 39 -2 55 0 15 2 2 4 -28 4 -30 0 -43 -2 -27 -4z"/>
<path d="M138 2243 c7 -3 16 -2 19 1 4 3 -2 6 -13 5 -11 0 -14 -3 -6 -6z"/>
<path d="M158 2213 c7 -3 16 -2 19 1 4 3 -2 6 -13 5 -11 0 -14 -3 -6 -6z"/>
<path d="M1111 2204 c0 -11 3 -14 6 -6 3 7 2 16 -1 19 -3 4 -6 -2 -5 -13z"/>
<path d="M940 2199 c0 -6 -6 -7 -12 -3 -7 4 -6 -1 4 -11 9 -9 21 -14 27 -11
15 10 14 23 -4 30 -8 3 -15 1 -15 -5z"/>
<path d="M980 2199 c0 -5 4 -8 9 -5 5 4 12 0 14 -6 3 -8 6 -6 6 5 1 9 -6 17
-14 17 -8 0 -15 -5 -15 -11z"/>
<path d="M1350 2120 c0 -10 -7 -23 -16 -28 -13 -7 -14 -11 -4 -17 7 -4 16 -2
21 6 9 15 12 59 4 59 -3 0 -5 -9 -5 -20z"/>
<path d="M1102 2110 c0 -14 2 -19 5 -12 2 6 2 18 0 25 -3 6 -5 1 -5 -13z"/>
<path d="M1352 2020 c0 -19 2 -27 5 -17 2 9 2 25 0 35 -3 9 -5 1 -5 -18z"/>
<path d="M535 1860 c-8 -13 5 -13 25 0 13 8 13 10 -2 10 -9 0 -20 -4 -23 -10z"/>
<path d="M476 1822 c-3 -5 1 -9 9 -9 8 0 15 4 15 9 0 4 -4 8 -9 8 -6 0 -12 -4
-15 -8z"/>
<path d="M163 1737 c5 -15 37 -22 37 -9 0 5 -9 12 -21 15 -13 3 -19 1 -16 -6z"/>
<path d="M123 1653 c9 -2 25 -2 35 0 9 3 1 5 -18 5 -19 0 -27 -2 -17 -5z"/>
<path d="M572 1624 c10 -10 20 -16 22 -13 3 3 -5 11 -17 18 -21 13 -21 12 -5
-5z"/>
<path d="M605 1597 c-9 -15 -14 -31 -10 -37 4 -6 -1 -20 -11 -31 -13 -14 -18
-43 -22 -119 -5 -98 -4 -100 17 -100 53 0 61 14 60 108 0 48 -4 96 -8 107 -5
11 -4 33 2 48 14 41 -6 57 -28 24z"/>
<path d="M124 1484 c-4 -14 -2 -35 4 -47 9 -19 11 -15 11 26 1 52 -5 61 -15
21z"/>
<path d="M335 1380 c3 -5 8 -10 11 -10 2 0 4 5 4 10 0 6 -5 10 -11 10 -5 0 -7
-4 -4 -10z"/>
<path d="M444 1245 c-3 -14 -10 -25 -15 -25 -5 0 -9 -5 -9 -11 0 -8 5 -8 15 1
12 10 16 9 21 -3 3 -9 12 -18 20 -21 13 -5 13 -3 0 15 -10 15 -12 28 -6 45 7
19 6 24 -5 24 -8 0 -17 -11 -21 -25z"/>
<path d="M350 1249 c0 -5 5 -7 10 -4 6 3 10 8 10 11 0 2 -4 4 -10 4 -5 0 -10
-5 -10 -11z"/>
<path d="M370 1208 c0 -19 2 -20 10 -8 13 19 13 30 0 30 -5 0 -10 -10 -10 -22z"/>
</g>
</svg>
